<?xml version="1.0" encoding="UTF-8" standalone="no"?>
<svg width="1009px" height="256px" viewBox="0 0 1009 256" version="1.1" xmlns="http://www.w3.org/2000/svg" xmlns:xlink="http://www.w3.org/1999/xlink" xmlns:sketch="http://www.bohemiancoding.com/sketch/ns">
    <!-- Generator: Sketch 3.5.2 (25235) - http://www.bohemiancoding.com/sketch -->
    <title>Purple Text</title>
    <desc>Created with Sketch.</desc>
    <defs></defs>
    <g id="Logo" stroke="none" stroke-width="1" fill="none" fill-rule="evenodd" sketch:type="MSPage">
        <g id="Purple-Text" sketch:type="MSLayerGroup">
            <rect id="Rect" sketch:type="MSShapeGroup" x="0" y="0" width="1092" height="256" rx="30"></rect>
            <rect id="Solid" fill="#9B59B6" sketch:type="MSShapeGroup" x="0" y="0" width="256" height="256" rx="30"></rect>
            <g id="Reading" transform="translate(38.000000, 38.000000)" stroke-width="7.5" stroke="#FFFFFF" sketch:type="MSShapeGroup">
                <g id="Layer_1">
                    <path d="M172.5,120 L172.5,157.5 C119.625,157.5 90,180 90,180 L90,67.5 C90,67.5 120,52.5 172.5,52.5 L172.5,82.5" id="Shape"></path>
                    <path d="M168.75,112.5 L172.5,112.5 C176.625,112.5 180,109.125 180,105 L180,90 C180,85.875 176.625,82.5 172.5,82.5 L168.75,82.5 C162.375,82.5 157.5,87.375 157.5,93.75 L157.5,101.25 C157.5,107.625 162.375,112.5 168.75,112.5 L168.75,112.5 Z" id="Shape"></path>
                    <path d="M7.5,120 L7.5,157.5 C60.375,157.5 90,180 90,180 L90,67.5 C90,67.5 60,52.5 7.5,52.5 L7.5,82.5" id="Shape"></path>
                    <path d="M11.25,112.5 L7.5,112.5 C3.375,112.5 0,109.125 0,105 L0,90 C0,85.875 3.375,82.5 7.5,82.5 L11.25,82.5 C17.625,82.5 22.5,87.375 22.5,93.75 L22.5,101.25 C22.5,107.625 17.625,112.5 11.25,112.5 L11.25,112.5 Z" id="Shape"></path>
                    <path d="M111,60 C118.875,54 123.75,44.25 123.75,33.75 C123.75,15 108.75,0 90,0 C71.25,0 56.25,15 56.25,33.75 C56.25,44.625 61.125,54 69,60" id="Shape"></path>
                </g>
            </g>
            <text id="MY-PROF" sketch:type="MSTextLayer" font-family="Roboto" font-size="170" font-weight="bold" fill="#914CAF">
                <tspan x="288" y="186">MY PROF</tspan>
            </text>
        </g>
    </g>
</svg>